<svg id="visual" viewBox="0 0 1440 540" width="1440" height="540" xmlns="http://www.w3.org/2000/svg" xmlns:xlink="http://www.w3.org/1999/xlink" version="1.1"><rect width="1440" height="540" fill="#222831"></rect><g><g transform="translate(422 520)"><path d="M0 -144.9L113.3 -90.4L141.3 32.2L62.9 130.6L-62.9 130.6L-141.3 32.2L-113.3 -90.4Z" fill="#00adb5"></path></g><g transform="translate(1227 134)"><path d="M0 -124L96.9 -77.3L120.9 27.6L53.8 111.7L-53.8 111.7L-120.9 27.6L-96.9 -77.3Z" fill="#00adb5"></path></g><g transform="translate(97 101)"><path d="M0 -110L86 -68.6L107.2 24.5L47.7 99.1L-47.7 99.1L-107.2 24.5L-86 -68.6Z" fill="#00adb5"></path></g><g transform="translate(821 193)"><path d="M0 -123L96.2 -76.7L119.9 27.4L53.4 110.8L-53.4 110.8L-119.9 27.4L-96.2 -76.7Z" fill="#00adb5"></path></g><g transform="translate(493 212)"><path d="M0 -75L58.6 -46.8L73.1 16.7L32.5 67.6L-32.5 67.6L-73.1 16.7L-58.6 -46.8Z" fill="#00adb5"></path></g><g transform="translate(1144 506)"><path d="M0 -123L96.2 -76.7L119.9 27.4L53.4 110.8L-53.4 110.8L-119.9 27.4L-96.2 -76.7Z" fill="#00adb5"></path></g><g transform="translate(123 509)"><path d="M0 -77L60.2 -48L75.1 17.1L33.4 69.4L-33.4 69.4L-75.1 17.1L-60.2 -48Z" fill="#00adb5"></path></g><g transform="translate(790 509)"><path d="M0 -110L86 -68.6L107.2 24.5L47.7 99.1L-47.7 99.1L-107.2 24.5L-86 -68.6Z" fill="#00adb5"></path></g><g transform="translate(1438 348)"><path d="M0 -135L105.5 -84.2L131.6 30L58.6 121.6L-58.6 121.6L-131.6 30L-105.5 -84.2Z" fill="#00adb5"></path></g></g></svg>